<svg width="15" height="19" viewBox="0 0 15 19" fill="none" xmlns="http://www.w3.org/2000/svg">
<path d="M13.4525 8.70023C13.2084 8.40023 12.9111 8.14022 12.6351 7.88021C11.9239 7.28019 11.1171 6.85018 10.4377 6.22016C8.85591 4.76012 8.50559 2.35005 9.51409 0.5C8.50559 0.730007 7.62449 1.25002 6.87077 1.82004C4.1213 3.9001 3.03849 7.5702 4.33361 10.7203C4.37608 10.8203 4.41854 10.9203 4.41854 11.0503C4.41854 11.2703 4.2593 11.4703 4.04699 11.5503C3.80283 11.6503 3.54805 11.5903 3.34635 11.4303C3.28266 11.3803 3.24019 11.3303 3.19773 11.2603C1.99815 9.83027 1.80707 7.78021 2.61386 6.14016C0.841038 7.5002 -0.124993 9.80027 0.0130114 11.9703C0.0767058 12.4703 0.1404 12.9704 0.320868 13.4704C0.469488 14.0704 0.756112 14.6704 1.07458 15.2004C2.22108 16.9305 4.20622 18.1705 6.33999 18.4205C8.61175 18.6905 11.0428 18.3005 12.7837 16.8205C14.7264 15.1604 15.4058 12.5003 14.4079 10.2203L14.2699 9.96027C14.047 9.50026 13.4525 8.70023 13.4525 8.70023ZM10.098 15.0004C9.80071 15.2404 9.31239 15.5004 8.93022 15.6004C7.74126 16.0004 6.5523 15.4404 5.85166 14.7804C7.11493 14.5004 7.86865 13.6204 8.09158 12.7303C8.27205 11.9303 7.93234 11.2703 7.79434 10.5003C7.66695 9.76026 7.68818 9.13025 7.97481 8.44023C8.17651 8.82024 8.38882 9.20025 8.6436 9.50026C9.46101 10.5003 10.7455 10.9403 11.0215 12.3003C11.064 12.4403 11.0852 12.5803 11.0852 12.7303C11.1171 13.5504 10.7349 14.4504 10.098 15.0004Z" fill="#DE6C53"/>
</svg>
