<svg width="18" height="18" viewBox="0 0 18 18" fill="none" xmlns="http://www.w3.org/2000/svg">
<path d="M9 3.58305C8.001 3.58305 7.2 4.26903 7.2 5.12457C7.2 5.98012 8.001 6.6661 9 6.6661C9.999 6.6661 10.8 5.98012 10.8 5.12457C10.8 4.26903 9.999 3.58305 9 3.58305ZM18 0.5V4.35381H16.2V2.81229H1.8V4.35381H0V0.5H1.8V2.04152H16.2V0.5H18ZM11.7 8.40802V17.4568H9.9V13.603H8.1V17.4568H6.3V8.40802C4.437 7.56789 3.15 5.89533 3.15 3.96843V3.58305H4.95V3.96843C4.95 5.89533 6.75 7.43686 9 7.43686C11.25 7.43686 13.05 5.89533 13.05 3.96843V3.58305H14.85V3.96843C14.85 5.89533 13.563 7.56789 11.7 8.40802Z" fill="#9E4CB8"/>
</svg>
