<svg width="15" height="18" viewBox="0 0 15 18" fill="none" xmlns="http://www.w3.org/2000/svg">
<path d="M6.08526 8.75584C6.50876 9.86417 6.46371 11.0175 5.19319 11.4771C2.58006 12.4412 1.99436 9.90922 1.95832 9.78307L6.08526 8.75584ZM1.55283 8.02597L5.44549 7.06182C5.27429 6.11569 5.5356 5.16957 5.5356 4.05223C5.5356 2.53843 4.33717 -0.426107 2.42688 0.0514625C0.246271 0.592107 -0.0691058 3.016 0.0119913 4.1874C0.120121 5.35879 1.48976 7.86378 1.55283 8.02597ZM12.4919 16.0816C12.4649 16.2167 11.8702 18.7397 9.25705 17.7846C7.99554 17.3161 7.94148 16.1627 8.36498 15.0544L12.4919 16.0816ZM14.4292 10.4949C14.5193 9.32352 14.213 6.89062 12.0234 6.34997C10.1221 5.85438 8.92365 8.83694 8.92365 10.3598C8.92365 11.4681 9.17595 12.4142 9.02277 13.3603L12.8974 14.3245C12.9695 14.1623 14.3301 11.6573 14.4292 10.4949Z" fill="#81B47D"/>
</svg>
